<?xml version="1.0" encoding="UTF-8"?><svg id="a" xmlns="http://www.w3.org/2000/svg" viewBox="0 0 566.93 227.46"><defs><style>.b{fill:#fff;}.b,.c{fill-rule:evenodd;}.c{fill:#f47d20;}</style></defs><path class="b" d="M91.33,136.11c.65-1.4,1.08-2.81,1.73-4.64.76-2.05,1.3-4.1,1.73-6.15l6.15-27.74c.54-2.81.86-4.97.97-6.15.22-1.08.22-2.27.22-3.35v-1.3h13.92l-8.42,38.53c-.65,2.7-.97,4.86-1.19,6.26-.22,1.51-.32,3.02-.32,4.53,0,0-14.79,0-14.79,0Z"/><path class="c" d="M286.48.32c-9.5,0-17.16,7.66-17.16,17.05s.76,5.61,2.05,8.1c-1.73.86-5.72,2.81-11.33,5.72-2.91-6.37-10.58-9.17-16.95-6.15-6.37,2.91-9.17,10.47-6.26,16.84.22.43.43.97.76,1.4-2.91,1.62-5.83,3.24-8.96,4.97-2.81-4.75-8.96-6.37-13.71-3.56-4.75,2.81-6.37,8.85-3.67,13.6-3.13,1.83-6.37,3.78-9.5,5.72-3.13-2.59-7.77-2.27-10.36.86-1.08,1.3-1.73,3.02-1.73,4.75s0,1.3.22,1.83c-12.2,7.77-23.96,16.19-35.08,25.47-11.66-25.8-28.71-54.08-52.57-77.18h0c-2.81-2.81-5.07-1.62-1.94,1.83h0c20.18,21.7,36.16,53,46.95,81.49-41.12,34.86-86.35,102.32-36.7,123.48,7.23,3.13,10.58-2.81,7.45-4.64-.54-.32-22.67-12.2-8.64-48.68h35.4c1.94,0,3.45-1.51,3.45-3.45s-1.51-3.45-3.45-3.45h-32.49c2.05-4.43,4.43-8.74,7.02-12.95h25.47c1.94,0,3.35-1.73,3.24-3.56,0-1.73-1.51-3.13-3.24-3.24h-21.05c2.59-3.89,5.61-7.99,8.85-12.3h12.09c1.94,0,3.35-1.73,3.24-3.56,0-1.73-1.51-3.13-3.24-3.24h-6.69c3.89-4.64,8.1-9.61,12.74-14.57h.11c9.28,26.66,13.82,49.54,12.84,57.21-.22,2.7-1.83,5.18-4.32,6.37-1.73.86-2.48,3.24.22,3.99,8.64,2.59,14.03-6.04,15-12.95s-3.78-32.27-16.3-62.6c10.9-10.58,22.56-20.4,34.97-29.36,1.08.65,2.37.97,3.67.97,4.1,0,7.34-3.24,7.34-7.34s0-.97-.11-1.4c3.24-2.27,6.58-4.43,9.82-6.58,1.73,1.4,3.99,2.16,6.26,2.16,5.5,0,10.04-4.32,10.04-9.82s0-1.73-.32-2.59c3.24-2.05,6.37-3.89,9.39-5.61,4.75,5.18,12.84,5.4,18.03.65,3.67-3.35,4.97-8.42,3.45-13.06,5.5-3.02,9.5-5.18,11.44-6.26,5.4,7.77,16.08,9.82,23.85,4.53,7.88-5.29,9.82-15.97,4.53-23.75-3.24-4.64-8.53-7.45-14.25-7.45h0v.32h.11Z"/><path class="b" d="M50.31,97.58c.22-.86.43-1.62.43-2.48s0-.76-.22-1.08c-.43-.65-1.51-.97-3.02-.97h-22.56c-1.19,0-2.27.22-3.24.97-.97.97-1.51,2.27-1.51,3.56l-2.7,11.33h30.01l2.7-11.33h.11ZM53.77,136.11H10.27c-4.32,0-7.34-.97-8.96-3.02-.86-1.4-1.4-3.02-1.3-4.64,0-1.83.32-3.56.76-5.4l5.4-23.31c1.19-4.75,2.91-8.1,5.18-10.04,2.37-1.94,5.72-3.02,10.25-3.02h32.17c4.53,0,7.56.97,9.07,3.02,1.08,1.4,1.51,3.13,1.4,4.86,0,1.73-.22,3.56-.76,5.29l-3.45,15.44H16.2l-2.37,10.04c-.22.76-.32,1.62-.32,2.37s0,.97.22,1.19c.32.65,1.3.97,2.81.97h31.84c2.81,0,5.61-.22,8.31-.86l-3.02,7.12h.11Z"/><path class="b" d="M64.24,136.11c.65-1.51,1.19-3.24,1.94-5.29.76-2.27,1.4-4.64,1.94-7.02l11.12-51.92c.65-3.24,1.08-5.61,1.3-7.02s.22-3.13.22-5.29h15.54l-13.82,64.22c-.65,3.13-1.08,5.5-1.4,7.23-.22,1.73-.43,3.45-.32,5.18h-16.51v-.11Z"/><path class="b" d="M245.57,95.09c-1.62,0-3.24-.22-5.07-.22h-7.23c-1.19,0-2.27.22-3.24.86-.97.86-1.62,1.94-1.83,3.24l-6.04,26.34c-.86,3.13-1.4,6.37-1.51,9.61v1.19h-15.76c.65-1.62,1.3-3.02,1.73-4.53.43-1.51.97-3.45,1.73-6.26l6.48-27.74c.76-2.7,1.08-4.86,1.4-6.37.22-1.51.22-2.91.22-4.43h13.28l-.54,5.07c.76-1.51,1.83-2.81,3.35-3.78,1.73-.97,3.67-1.4,5.72-1.3h12.95l3.13,5.4c-.65.54-1.3,1.3-1.83,1.94-.76.97-1.3,1.4-1.62,1.4-1.94,0-3.67-.32-5.29-.43h0Z"/><path class="b" d="M175.3,136.11c.65-1.4,1.19-2.81,1.83-4.64.76-2.05,1.4-4.1,1.83-6.15l6.8-27.74c.54-2.81.97-4.97,1.08-6.15.22-1.08.22-2.27.22-3.35v-1.3h15.33l-9.17,38.53c-.65,2.7-1.08,4.86-1.3,6.26-.32,1.51-.43,3.02-.32,4.53h-16.3,0Z"/><path class="b" d="M118.53,69.4c0,4.1-3.35,7.45-7.34,7.45s-7.45-3.35-7.45-7.34,3.35-7.45,7.34-7.45h0c4.1,0,7.34,3.35,7.34,7.34h.11Z"/><path class="b" d="M335.23,95.8c3.3,0,3.66-.37,4.27-3.18l4.27-17.47c.85-3.54.85-4.15.24-5.62h7.45c-1.34,1.47-1.71,2.08-2.56,5.62l-3.91,16.12c-1.71,7.21-4.4,9.77-11.11,9.77h-15.76c-6.11,0-7.82-3.18-6.23-9.77l4.03-16.37c.73-3.05.61-4.15.37-5.37h13.8c-1.22,1.59-1.95,3.42-2.32,5.37l-4.4,17.95c-.49,2.08.12,2.93,2.2,2.93h9.65Z"/><path class="b" d="M358.56,74.91h0l-5.01,20.4c-.85,3.54-.85,4.15-.24,5.62h-7.45c1.34-1.47,1.71-2.08,2.56-5.62l4.89-20.28c.85-3.54.85-4.15.24-5.62h16.49l6.23,25.65h.12l4.89-20.03c.85-3.54.85-4.15.24-5.62h7.45c-1.34,1.47-1.71,2.08-2.56,5.62l-6.23,25.89h-15.15l-6.35-26.02h-.12Z"/><path class="b" d="M386.04,101.05c1.22-1.59,2.08-3.42,2.44-5.37l5.37-20.76c.73-3.05.73-4.15.37-5.37h14.66c-1.22,1.59-2.08,3.42-2.44,5.37l-5.37,20.76c-.73,3.05-.73,4.15-.37,5.37h-14.66Z"/><path class="b" d="M440.64,69.42l-.61,6.47c-1.1-.98-2.56-1.47-4.03-1.34h-5.37l-5.01,20.89c-.73,3.05-.61,4.15-.37,5.37h-13.56c1.1-1.59,1.95-3.42,2.32-5.37l5.01-20.89h-5.37c-1.59,0-3.3.37-4.64,1.34l2.56-6.47h29.07Z"/><path class="b" d="M459.08,95.8c1.83,0,3.79-.24,5.5-.85l-2.56,6.11h-27.24c1.22-1.59,1.95-3.42,2.32-5.37l5.01-20.76c.73-3.05.61-4.15.37-5.37h26.75l-.49,6.11c-1.59-.61-3.42-.85-5.13-.85h-9.65l-1.83,7.45h8.43c1.83,0,3.79-.24,5.5-.85l-1.71,6.96c-1.59-.61-3.42-.85-5.13-.85h-8.43l-2.08,8.43h10.38v-.12Z"/><path class="b" d="M480.82,95.8h6.35c1.95,0,2.44-.49,2.93-2.56l4.03-16c.49-2.08.37-2.56-1.59-2.56h-6.35l-5.37,21.13h0ZM473.98,74.91c.73-3.05.61-4.15.37-5.37h24.79c6.84,0,8.55,2.56,6.96,8.92l-3.42,13.68c-1.59,6.35-4.64,9.04-11.48,9.04h-24.79c1.22-1.59,2.08-3.42,2.44-5.37l5.13-20.76h0v-.12Z"/><path class="b" d="M342.07,143.31c.73,2.32,1.71,4.4,2.93,6.47h-14.29l-3.54-13.31-3.54,3.18-1.1,4.76c-.73,3.05-.61,4.15-.37,5.37h-13.44c1.1-1.59,1.95-3.42,2.32-5.37l5.01-20.64c.61-1.71.73-3.66.37-5.37h13.44c-1.1,1.59-1.95,3.42-2.32,5.37l-2.08,8.67,10.26-9.53c1.71-1.59,2.2-2.32,2.44-3.42,0-.37.12-.73.12-1.22h10.63c-1.71.73-3.3,1.83-4.76,3.05l-7.08,6.23,5.13,15.76h-.12Z"/><path class="b" d="M348.79,149.78c1.1-1.59,1.83-3.42,2.2-5.37l4.76-20.76c.73-3.05.61-4.15.37-5.37h12.82c-1.1,1.59-1.83,3.42-2.2,5.37l-4.76,20.76c-.73,3.05-.61,4.15-.37,5.37h-12.82Z"/><path class="b" d="M378.59,123.65h0l-5.01,20.4c-.85,3.54-.85,4.15-.24,5.62h-7.45c1.34-1.47,1.71-2.08,2.56-5.62l4.89-20.15c.85-3.54.85-4.15.24-5.62h16.49l6.23,25.77h.12l4.89-20.03c.85-3.54.85-4.15.24-5.62h7.45c-1.34,1.47-1.71,2.08-2.56,5.62l-6.23,25.89h-15.27l-6.35-26.14h0v-.12Z"/><path class="b" d="M443.45,130.85c-1.47,1.34-2.32,3.05-2.69,4.89l-1.95,7.82c-.98,3.91-.98,4.52-.24,6.23h-10.63l.37-2.93h0c-.98,1.83-1.71,2.93-5.13,2.93h-10.63c-5.13,0-7.33-2.44-5.74-9.28l3.3-13.07c1.71-6.84,5.13-9.28,10.26-9.28h23.08l-.61,6.11c-1.47-.61-3.05-.85-4.64-.85h-12.82c-1.59,0-2.44.49-2.81,2.08l-4.27,17.1c-.37,1.47.24,2.08,1.83,2.08h4.03c1.59,0,2.44-.49,2.93-2.08l1.59-6.47h-4.52c-.73,0-1.47.24-2.2.61l1.47-5.86h20.03Z"/><path class="b" d="M455.05,144.65h6.35c1.95,0,2.44-.49,2.93-2.56l4.03-16c.49-2.08.37-2.56-1.59-2.56h-6.35l-5.37,21.13h0ZM448.09,123.65c.73-3.05.61-4.15.37-5.37h24.79c6.84,0,8.55,2.56,6.96,9.04l-3.42,13.56c-1.59,6.47-4.64,9.04-11.48,9.04h-24.79c1.22-1.59,2.08-3.42,2.44-5.37l5.13-20.76h0v-.12Z"/><path class="b" d="M492.55,142.58c-.37,1.47.24,2.08,1.83,2.08h5.13c1.47,0,2.44-.49,2.81-2.08l4.15-17.1c.37-1.47-.24-2.08-1.83-2.08h-5.13c-1.59,0-2.44.49-2.81,2.08l-4.15,17.1ZM484.49,127.55c1.59-6.84,5.01-9.28,10.02-9.28h17.59c5.01,0,7.21,2.44,5.5,9.28l-3.18,13.07c-1.59,6.84-5.01,9.28-10.02,9.28h-17.59c-5.01,0-7.21-2.44-5.5-9.28l3.18-13.07h0Z"/><path class="b" d="M551.17,118.27h15.76c-1.22,1.59-1.95,3.42-2.32,5.37l-5.01,20.64c-.73,3.05-.61,4.15-.24,5.37h-13.68c1.1-1.59,1.95-3.42,2.32-5.37l4.64-19.42h0l-14.53,24.79h-8.06l-2.2-24.79h0l-4.64,19.18c-.85,3.54-.85,4.15-.24,5.62h-7.33c1.34-1.47,1.71-2.08,2.56-5.62l4.89-20.15c.85-3.54.85-4.15.24-5.62h16.24l1.47,17.83h0l10.5-17.83h-.37Z"/></svg>